<svg class="canvas" viewBox="0 0 1920 1080" preserveAspectRatio="xMaxYMid slice" xmlns="http://www.w3.org/2000/svg" version="1.1" xmlns:xlink="http://www.w3.org/1999/xlink" xmlns:svgjs="http://svgjs.com/svgjs"><rect width="1920" height="1080" fill="hsl(151, 65%, 15%)"></rect><defs><linearGradient x1="0.5" y1="0" x2="0" y2="1" id="SvgjsLinearGradient1084"><stop stop-color="#288a82" offset="0"></stop><stop stop-color="#060714" offset="0.1"></stop></linearGradient><linearGradient x1="0.5" y1="0" x2="0" y2="1" id="SvgjsLinearGradient1085"><stop stop-color="#288a47" offset="0"></stop><stop stop-color="#060f14" offset="0.22857142857142856"></stop></linearGradient><linearGradient x1="0.5" y1="0" x2="0" y2="1" id="SvgjsLinearGradient1086"><stop stop-color="#288a6f" offset="0"></stop><stop stop-color="#060a14" offset="0.3571428571428571"></stop></linearGradient><linearGradient x1="0.5" y1="0" x2="0" y2="1" id="SvgjsLinearGradient1087"><stop stop-color="#c0f2da" offset="0"></stop><stop stop-color="#428ad7" offset="0.48571428571428565"></stop></linearGradient><linearGradient x1="0.5" y1="0" x2="0" y2="1" id="SvgjsLinearGradient1088"><stop stop-color="#c0f2d0" offset="0"></stop><stop stop-color="#42a8d7" offset="0.6142857142857142"></stop></linearGradient><linearGradient x1="0.5" y1="0" x2="0" y2="1" id="SvgjsLinearGradient1089"><stop stop-color="#c0f2d0" offset="0"></stop><stop stop-color="#42a8d7" offset="0.7428571428571429"></stop></linearGradient><linearGradient x1="0.5" y1="0" x2="0" y2="1" id="SvgjsLinearGradient1090"><stop stop-color="#c0f2ed" offset="0"></stop><stop stop-color="#424ed7" offset="0.8714285714285713"></stop></linearGradient></defs><path d="M0,-542.544969785948C79.09737586182715,-525.7293504903369,312.98197290319916,-488.0263159480142,474.5842551709629,-441.6512540122813C636.1865374387266,-395.2761920765484,810.9626504219253,-310.214786782076,969.6136936065823,-264.2945981715505C1128.2647367912393,-218.37440956102498,1268.0927965466685,-209.7550604133953,1426.4905142789048,-166.13012234912824C1584.888232011141,-122.50518428486117,1837.748419046484,-29.809161879811377,1920,-2.5449697859480054L 1920 1080 L 0 1080 Z" fill="url(#SvgjsLinearGradient1084)"></path><path d="M0,-433.3692661840223C42.91827925274885,-419.86333834912205,183.1411446919131,-382.9290149838682,257.50967551649313,-352.33369917462085C331.87820634107317,-321.73838336537347,363.8039341869567,-269.3034776021197,446.2111849474801,-249.79737132853785C528.6184357080035,-230.291265054956,671.4426022309959,-256.1931690819678,751.9531800796334,-235.2970615331297C832.4637579282709,-214.4009539842916,848.0368948118477,-157.44308812056033,929.2746520393047,-124.42072603550919C1010.5124092667617,-91.39836395045806,1152.9433397427113,-55.58518469492485,1239.3797234443755,-37.16288902282294C1325.8161071460397,-18.740593350721028,1374.0613018398933,-24.489623630481876,1447.8929542492906,-13.88695200289773C1521.724606658688,-3.284280375313582,1603.6851302756415,3.9859073919169887,1682.3696379007597,26.453140742681946C1761.0541455258779,48.9203740934469,1880.3949396501266,105.17256354185702,1920,120.91644810169203L 1920 1080 L 0 1080 Z" fill="url(#SvgjsLinearGradient1085)"></path><path d="M0,-267.4212280270248C58.841999488922994,-243.77005421316306,227.62085044798744,-155.1039504976198,353.05199693353796,-125.51418514385432C478.4831434190885,-95.92441979008886,621.1789727947368,-117.5456031479806,752.5868789133033,-89.88263590443208C883.9947850318698,-62.219668660883556,1007.7578776073074,-2.773741470254066,1141.499433644937,40.463618317436776C1275.2409896825666,83.70097810512762,1425.2861207465703,126.09375911721844,1555.0362151390807,169.54152282171293C1684.786309531591,212.98928652620742,1859.17270252318,279.2154209239553,1920,301.1502005444038L 1920 1080 L 0 1080 Z" fill="url(#SvgjsLinearGradient1086)"></path><path d="M0,-106.26972529228924C49.29871680432536,-97.46759580072293,204.8094636942402,-87.71699749580796,295.79230082595217,-53.45694834289145C386.7751379576641,-19.196899189974943,457.5003498740255,66.03172549558658,545.8970227902716,99.2905696252098C634.2936957065178,132.549413754833,741.1583793515678,119.85159255193275,826.1723383234291,146.0961164348479C911.1862972952905,172.34064031776302,958.3535014325263,233.68366477523946,1055.9807766214396,256.7577129227006C1153.6080518103531,279.83176107016175,1314.55334710548,255.2616779003908,1411.9359894569095,284.5404053196147C1509.318631808339,313.8191327388386,1555.5992956395012,400.4222420638376,1640.2766307300162,432.43007743804407C1724.9539658205313,464.43791281225054,1873.3794384550026,469.227860877052,1920,476.58741756485364L 1920 1080 L 0 1080 Z" fill="url(#SvgjsLinearGradient1087)"></path><path d="M0,15.223429832541413C83.64448382825213,36.677605836696316,343.60716211352894,99.700769374131,501.8669029695128,143.9484858574708C660.1266438254967,188.19620234081063,790.6904965192265,227.80952048921205,949.5584451359033,280.7097287325803C1108.42639375258,333.60993697594853,1293.3343355255574,406.07364227721047,1455.0745946695736,461.3497353176802C1616.8148538135897,516.6258283581499,1842.512432444929,587.1968616991122,1920,612.3662869753987L 1920 1080 L 0 1080 Z" fill="url(#SvgjsLinearGradient1088)"></path><path d="M0,99.85028734172809C40.92967398682426,104.87167061911639,159.9226299562066,104.30239353540091,245.5780439209456,129.9785870060579C331.2334578856846,155.65478047671488,435.43600983750264,212.62636950316048,513.932483788434,253.90744816567002C592.4289577393653,295.1885268281796,644.4371586014456,351.69703800234595,716.5568876265334,377.6650589811152C788.6766166516211,403.6330799598844,865.5502585901634,385.48087100634996,946.6508579389605,409.71557403828524C1027.7514572877576,433.9502770702205,1119.7622159352143,496.92614051469405,1203.1604837193163,523.0732771727269C1286.5587515034183,549.2204138307598,1370.394139324491,549.1218833023655,1447.040464643573,566.5983939864823C1523.6867899626548,584.074904670599,1584.2118464077362,603.8189304801244,1663.0384356338072,627.9323412774273C1741.8650248598783,652.0457520747302,1877.1730726056346,697.3877725214875,1920,711.2788587702995L 1920 1080 L 0 1080 Z" fill="url(#SvgjsLinearGradient1089)"></path><path d="M0,277.0370418561227C48.424905232690755,286.8310899538036,206.48363164737668,307.5120360510608,290.54943139614454,335.80133044220815C374.6152311449124,364.0906248333555,410.24003254767666,404.21014211567575,504.39479849260704,446.7728082030067C598.5495644375375,489.3354742903377,760.6277008721818,562.9531657663412,855.4780270657269,591.177326966194C950.328353259272,619.4014881660468,990.6256010385837,598.842841136945,1073.4967556538782,616.1177754021237C1156.3679102691726,633.3927096673024,1254.6440900253185,658.418640823207,1352.7049547574939,694.8269325572662C1450.7658194896692,731.2352242913254,1567.3127698398453,799.913459970955,1661.8619440469297,834.5675258064788C1756.4111182540141,869.2215916420025,1876.9769906744882,891.3873606097536,1920,902.7513275704085L 1920 1080 L 0 1080 Z" fill="url(#SvgjsLinearGradient1090)"></path></svg>